<svg id="owl-logo" enable-background="new 0 0 512 512" height="512" viewBox="0 0 512 512" width="512" xmlns="http://www.w3.org/2000/svg"><path d="m351.807 122.648v191.571c0 52.825-42.894 95.648-95.807 95.648-52.913 0-95.807-42.823-95.807-95.648v-191.571c0-52.825 42.894-95.648 95.807-95.648 52.913 0 95.807 42.823 95.807 95.648z" fill="#a35418"/><path d="m256 27c-5.262 0-10.422.43-15.453 1.245 45.564 7.377 80.354 46.831 80.354 94.403v191.572c0 47.572-34.79 87.026-80.354 94.403 5.031.815 10.191 1.245 15.453 1.245 52.913 0 95.807-42.823 95.807-95.648v-191.572c0-52.825-42.894-95.648-95.807-95.648z" fill="#8c4815"/><path d="m347.344 127.069c0 25.851-20.981 46.813-46.869 46.813-20.72 0-38.295-13.419-44.475-32.037-6.192 18.618-23.768 32.037-44.475 32.037-25.887 0-46.869-20.962-46.869-46.813 0-25.863 20.982-46.825 46.869-46.825h88.951c25.887 0 46.868 20.962 46.868 46.825z" fill="#f2cdae"/><circle cx="287.462" cy="114.036" fill="#6297b3" r="16.527"/><circle cx="224.538" cy="114.036" fill="#6297b3" r="16.527"/><path d="m114.886 328.931h-14.444v-150.244c0-25.022 20.284-45.307 45.307-45.307h14.444v150.244c0 25.022-20.284 45.307-45.307 45.307z" fill="#f2cdae"/><path d="m145.771 133.38c-5.817 0-11.373 1.107-16.483 3.102v147.164c0 19.199-11.964 35.595-28.845 42.184v3.102h14.423c25.034 0 45.328-20.275 45.328-45.285v-150.267z" fill="#e6b793"/><path d="m397.114 328.931h14.444v-150.244c0-25.022-20.284-45.307-45.307-45.307h-14.444v150.244c0 25.022 20.284 45.307 45.307 45.307z" fill="#f2cdae"/><path d="m366.229 133.38h-14.423v3.102c16.881 6.589 28.845 22.985 28.845 42.184v147.164c5.11 1.995 10.665 3.102 16.483 3.102h14.423v-150.266c0-25.011-20.294-45.286-45.328-45.286z" fill="#e6b793"/><path d="m256 80.222s-5.175-29.393-41.974-29.393-50.306 0-60.373 0c-19.74 0-35.799-7.761-42.304-11.441-1.414-.8-3.14.275-3.065 1.897.588 12.731 5.905 53.171 49.719 53.171 51.998-.001 97.997-14.234 97.997-14.234z" fill="#bf6724"/><path d="m256 80.222s5.175-29.393 41.974-29.393 50.306 0 60.373 0c19.74 0 35.799-7.761 42.304-11.441 1.414-.8 3.14.275 3.065 1.897-.588 12.731-5.905 53.171-49.719 53.171-51.998-.001-97.997-14.234-97.997-14.234z" fill="#bf6724"/><path d="m400.651 39.388c-4.928 2.788-15.344 7.911-28.683 10.235-2.332 15.123-10.543 39.546-39.096 44.09 6.857.469 13.933.743 21.125.743 43.814 0 49.131-40.44 49.719-53.171.075-1.622-1.651-2.697-3.065-1.897z" fill="#a35418"/><path d="m278.815 161.765c-2.32 8.681-8.127 20.237-22.666 23.687-14.539-3.45-20.346-15.005-22.666-23.687-1.497-5.603 1.051-11.57 5.831-13.953l7.444-3.71c5.976-2.979 12.804-2.979 18.781 0l7.444 3.71c4.781 2.383 7.329 8.349 5.832 13.953z" fill="#ffca28"/><path d="m358.263 485h-204.526c-2.83 0-4.765-2.858-3.714-5.485l47.187-118.025h117.58l47.187 118.025c1.05 2.627-.885 5.485-3.714 5.485z" fill="#ffca28"/><path d="m314.787 361.494h-30.905l49.382 123.506h24.998c2.83 0 4.765-2.858 3.714-5.485z" fill="#ffb300"/><path d="m508 388.254h-504c-2.209 0-4-1.791-4-4v-25.964c0-2.209 1.791-4 4-4h504c2.209 0 4 1.791 4 4v25.964c0 2.209-1.791 4-4 4z" fill="#bf6724"/><path d="m169.301 367.384h-.015c-8.53 0-15.445-6.915-15.445-15.445v-37.037c0-8.53 6.915-15.445 15.445-15.445h.015c8.53 0 15.445 6.915 15.445 15.445v37.037c0 8.53-6.915 15.445-15.445 15.445z" fill="#f2cdae"/><path d="m200.206 367.384h-.015c-8.53 0-15.445-6.915-15.445-15.445v-37.037c0-8.53 6.915-15.445 15.445-15.445h.015c8.53 0 15.445 6.915 15.445 15.445v37.037c.001 8.53-6.915 15.445-15.445 15.445z" fill="#e6b793"/><path d="m311.808 367.384h-.015c-8.53 0-15.445-6.915-15.445-15.445v-37.037c0-8.53 6.915-15.445 15.445-15.445h.015c8.53 0 15.445 6.915 15.445 15.445v37.037c.001 8.53-6.914 15.445-15.445 15.445z" fill="#f2cdae"/><path d="m342.714 367.384h-.015c-8.53 0-15.445-6.915-15.445-15.445v-37.037c0-8.53 6.915-15.445 15.445-15.445h.015c8.53 0 15.445 6.915 15.445 15.445v37.037c0 8.53-6.915 15.445-15.445 15.445z" fill="#e6b793"/><g fill="#ffb300"><path d="m221.64 424.83-13.07 60.17h-15.35l13.75-63.33c.87-4.05 4.86-6.63 8.91-5.75 4.05.87 6.63 4.86 5.76 8.91z"/><path d="m318.68 485h-15.35l-12.97-60.17c-.87-4.05 1.71-8.04 5.76-8.91 4.04-.88 8.04 1.7 8.91 5.75z"/><path d="m263.5 420.33v64.67h-15v-64.67c0-4.15 3.36-7.5 7.5-7.5s7.5 3.35 7.5 7.5z"/></g><path d="m351.807 216.612v34.612l-34.438-5.512c-.931-.149-1.885.036-2.694.522l-56.618 34.05c-1.269.763-2.855.763-4.123 0l-56.608-34.05c-.808-.486-1.763-.671-2.694-.522l-34.438 5.512v-34.612l38.652-6.912c.945-.169 1.919.007 2.745.497l52.365 31.058c1.258.746 2.823.746 4.081 0l52.365-31.058c.826-.49 1.8-.666 2.744-.497z" fill="#f2cdae"/><path d="m320.901 211.087v35.191l30.906 4.946v-34.612z" fill="#e6b793"/></svg>